<?xml version="1.0" encoding="UTF-8"?>
<svg width="99px" height="36px" viewBox="0 0 99 36" version="1.1" xmlns="http://www.w3.org/2000/svg" xmlns:xlink="http://www.w3.org/1999/xlink">
    <!-- Generator: sketchtool 63.1 (101010) - https://sketch.com -->
    <title>A8BD5AEC-68E1-4C5B-B660-160AF96B6176@2x</title>
    <desc>Created with sketchtool.</desc>
    <defs>
        <polygon id="path-1" points="0 0 98.6631579 0 98.6631579 35.2513158 0 35.2513158"></polygon>
    </defs>
    <g id="Design" stroke="none" stroke-width="1" fill="none" fill-rule="evenodd">
        <g id="Components" transform="translate(-123.000000, -255.000000)">
            <g id="HEADER/Connected" transform="translate(84.000000, 243.000000)">
                <g id="HEADER">
                    <g id="Group-5">
                        <g id="Group" transform="translate(39.000000, 12.000000)">
                            <polygon id="Fill-106" fill="#FF9F00" points="0.204736842 33.9626316 0.204736842 35.4889474 68.185 35.4889474 69.2613158 33.9626316"></polygon>
                            <g id="Group-128" transform="translate(0.000000, 0.171053)">
                                <mask id="mask-2" fill="white">
                                    <use xlink:href="#path-1"></use>
                                </mask>
                                <g id="Clip-109"></g>
                                <path d="M78.3975,32.2957895 C78.3975,32.2957895 83.1119737,25.2536842 83.5369737,24.5589474 C84.0567105,23.7076316 84.0803947,22.3523684 83.6132895,21.6260526 C83.3751316,21.2457895 76.3461842,10.1286842 76.3461842,10.1286842 C75.7132895,8.92736842 75.8711842,8.10631579 76.2922368,7.51947368 C76.9856579,6.49710526 78.2067105,4.68526316 78.2067105,4.68526316 C78.2067105,4.68526316 86.7422368,18.0734211 87.0975,18.6694737 C88.0146053,20.1971053 87.7580263,21.6944737 87.0053947,22.9747368 C86.3725,24.0576316 80.8435526,32.2957895 80.8435526,32.2957895 L78.3975,32.2957895 Z" id="Fill-108" fill="#FF9F00" mask="url(#mask-2)"></path>
                                <path d="M76.88,33.0567105 C76.88,33.0567105 82.3352632,25.0698684 82.7405263,24.4080263 C83.2181579,23.6001316 83.1655263,22.4606579 82.7405263,21.7738158 C82.5142105,21.4106579 74.9378947,9.48565789 74.9378947,9.48565789 C74.9378947,9.48565789 73.5931579,11.5132895 73.1694737,12.1396053 C72.7444737,12.7632895 72.4944737,13.5396053 73.2221053,14.7896053 C73.2221053,14.7896053 78.6471053,23.3540789 78.8747368,23.7172368 C79.3181579,24.4146053 79.2971053,25.6988158 78.8036842,26.5067105 C78.3984211,27.1593421 72.8036842,35.3185526 72.8036842,35.3185526 C72.8036842,35.3185526 87.3313158,35.3185526 88.9497368,35.3185526 C90.5918421,35.3185526 91.4918421,34.6817105 92.2839474,33.5409211 C92.9707895,32.5711842 95.6273684,28.7106579 96.0352632,28.1053947 C96.4365789,27.5001316 97.2457895,27.0948684 97.6063158,27.0948684 L98.8694737,27.0948684 L96.4076316,23.3501316 L92.48,23.3501316 C91.73,23.3501316 90.8221053,24.0159211 90.3457895,24.7211842 C89.9734211,25.2777632 87.2865789,29.3027632 86.8023684,29.9501316 C86.5273684,30.3146053 86.2931579,30.3961842 86.0747368,30.3975 C85.955,30.3975 85.6076316,30.3961842 85.5628947,30.3961842 C85.7234211,30.0738158 90.2365789,23.5093421 91.1247368,22.0632895 C92.1944737,20.2856579 92.4392105,17.9356579 91.1628947,15.6803947 C90.6957895,14.8619737 81.3194737,0.0659210526 81.3194737,0.0659210526 C81.3194737,0.0659210526 80.0707895,1.86460526 79.5510526,2.63434211 C79.1286842,3.26328947 78.9984211,4.08434211 79.6063158,5.28697368 C79.6063158,5.28697368 87.4786842,17.8053947 87.8536842,18.3803947 C88.7681579,19.8080263 88.6536842,21.7146053 87.8536842,23.0159211 C87.1997368,24.0856579 81.7615789,32.2961842 81.7615789,32.2961842 L86.0707895,32.2961842 C87.63,32.2961842 88.0142105,31.7172368 88.4444737,31.2369737 C88.8747368,30.7553947 91.2181579,27.2027632 91.4852632,26.8264474 C91.755,26.4567105 92.4392105,25.4080263 93.3378947,25.4080263 L96.1668421,25.4080263 L96.1668421,25.4896053 C95.5642105,25.6119737 94.9694737,25.9738158 94.5392105,26.5672368 C94.1089474,27.1488158 91.2628947,31.3619737 90.9221053,31.8514474 C90.4918421,32.4711842 89.9984211,33.0567105 88.7602632,33.0567105 L76.88,33.0567105 Z" id="Fill-110" fill="#FF9F00" mask="url(#mask-2)"></path>
                                <polygon id="Fill-111" fill="#FFFFFE" mask="url(#mask-2)" points="40.6605263 23.1921053 42.1868421 23.1921053 42.1868421 30.1473684 40.6605263 30.1473684"></polygon>
                                <polygon id="Fill-112" fill="#FFFFFE" mask="url(#mask-2)" points="39.5830263 30.1486842 39.5830263 28.8763158 36.0264474 28.8763158 36.0264474 23.1934211 34.4909211 23.1934211 34.4909211 30.1486842 36.0264474 30.1486842"></polygon>
                                <path d="M16.0907895,28.1301316 L19.3328947,28.1314474 L20.2328947,30.1485526 L21.9,30.1485526 L18.4947368,23.1932895 L16.9197368,23.1932895 L13.5144737,30.1485526 L15.1934211,30.1485526 L16.0907895,28.1301316 Z M17.7078947,24.3932895 L18.8118421,26.9064474 L16.6118421,26.9103947 L17.7078947,24.3932895 Z" id="Fill-113" fill="#FFFFFE" mask="url(#mask-2)"></path>
                                <path d="M28.08,24.4646053 L30.4773684,24.4646053 C31.0378947,24.4646053 31.3931579,25.0053947 31.3931579,25.4896053 C31.3931579,25.9738158 31.0378947,26.4988158 30.4773684,26.4988158 L28.6010526,26.4988158 L31.6405263,30.1488158 L33.4484211,30.1488158 L31.2944737,27.5553947 L31.2971053,27.5553947 C32.2247368,27.2553947 32.8194737,26.4067105 32.8194737,25.4461842 C32.8194737,24.2475 31.8931579,23.1922368 30.5431579,23.1922368 L26.5773684,23.1922368 L26.5773684,30.1488158 L28.08,30.1488158 L28.08,24.4646053 Z" id="Fill-114" fill="#FFFFFE" mask="url(#mask-2)"></path>
                                <polygon id="Fill-115" fill="#FFFFFE" mask="url(#mask-2)" points="22.925 23.1921053 24.4513158 23.1921053 24.4513158 30.1473684 22.925 30.1473684"></polygon>
                                <path d="M61.7231579,27.3289474 L63.6771053,27.3289474 C64.1271053,27.3289474 64.4297368,27.5881579 64.4297368,28.0868421 C64.4297368,28.5842105 64.1271053,28.8447368 63.6771053,28.8447368 L59.4718421,28.8447368 L59.4718421,30.15 L63.5310526,30.15 C65.1060526,30.15 65.8823684,29.1105263 65.8823684,28.0565789 C65.8823684,27 65.1060526,25.9710526 63.5310526,25.9710526 C62.8534211,25.9710526 61.5639474,25.9736842 61.5639474,25.9736842 C61.1284211,25.9736842 60.8336842,25.7223684 60.8336842,25.2394737 C60.8336842,24.7526316 61.1284211,24.5013158 61.5639474,24.5013158 C61.5639474,24.5013158 65.135,24.5013158 65.7784211,24.5013158 L65.7784211,23.1947368 L61.7231579,23.1947368 C60.1639474,23.1947368 59.3968421,24.1144737 59.3968421,25.2671053 C59.3968421,26.4184211 60.1639474,27.3289474 61.7231579,27.3289474" id="Fill-116" fill="#FFFFFE" mask="url(#mask-2)"></path>
                                <polygon id="Fill-117" fill="#FFFFFE" mask="url(#mask-2)" points="57.9272368 30.1486842 57.9272368 28.8763158 53.8548684 28.8763158 53.8548684 27.0960526 57.4035526 27.0960526 57.4035526 25.8315789 53.8548684 25.8315789 53.8548684 24.4644737 57.9272368 24.4657895 57.9272368 23.1934211 52.3219737 23.1934211 52.3219737 30.1486842 53.8548684 30.1486842"></polygon>
                                <path d="M45.5846053,24.4646053 L48.1135526,24.4646053 C48.7332895,24.4646053 49.1293421,25.0290789 49.1293421,25.5540789 L49.1293421,30.1488158 L50.6530263,30.1488158 L50.6530263,25.3593421 C50.6530263,24.1751316 49.8096053,23.1922368 48.4582895,23.1922368 L46.4569737,23.1922368 L45.5846053,24.3514474 L45.5846053,24.3488158 L45.5846053,23.1922368 L44.0596053,23.1922368 L44.0596053,30.1488158 L45.5846053,30.1488158 L45.5846053,24.4646053 Z" id="Fill-118" fill="#FFFFFE" mask="url(#mask-2)"></path>
                                <path d="M2.53171053,18.6260526 L4.48565789,18.6260526 C4.93565789,18.6260526 5.23828947,18.8852632 5.23828947,19.3839474 C5.23828947,19.8813158 4.93565789,20.1405263 4.48565789,20.1405263 L0.280394737,20.1405263 L0.280394737,21.4471053 L4.33960526,21.4471053 C5.91460526,21.4471053 6.68960526,20.4076316 6.68960526,19.3536842 C6.68960526,18.2971053 5.91460526,17.2681579 4.33960526,17.2681579 C3.66197368,17.2681579 2.3725,17.2707895 2.3725,17.2707895 C1.93565789,17.2707895 1.64223684,17.0194737 1.64223684,16.5365789 C1.64223684,16.0497368 1.93565789,15.7984211 2.3725,15.7984211 L6.58697368,15.7984211 L6.58697368,14.4905263 L2.53171053,14.4905263 C0.9725,14.4905263 0.204078947,15.4115789 0.204078947,16.5628947 C0.204078947,17.7155263 0.9725,18.6260526 2.53171053,18.6260526" id="Fill-119" fill="#FFFFFE" mask="url(#mask-2)"></path>
                                <path d="M23.4252632,21.4456579 L26.5292105,21.4456579 L26.5292105,16.9075 L25.0042105,16.9075 L25.0042105,20.1022368 L23.2160526,20.1022368 C21.9252632,20.1022368 21.0607895,19.3575 21.0607895,17.9311842 C21.0607895,16.4982895 21.9252632,15.7614474 23.2160526,15.7614474 L26.5292105,15.7614474 L26.5292105,14.4903947 L23.4252632,14.4903947 C20.8068421,14.4903947 19.5147368,16.3693421 19.5147368,17.9759211 C19.5147368,19.5811842 20.8068421,21.4456579 23.4252632,21.4456579" id="Fill-120" fill="#FFFFFE" mask="url(#mask-2)"></path>
                                <polygon id="Fill-121" fill="#FFFFFE" mask="url(#mask-2)" points="8.25131579 14.4907895 9.77763158 14.4907895 9.77763158 21.4460526 8.25131579 21.4460526"></polygon>
                                <path d="M13.1910526,15.7611842 L15.72,15.7611842 C16.3397368,15.7611842 16.7357895,16.3256579 16.7357895,16.8506579 L16.7357895,21.4453947 L18.2594737,21.4453947 L18.2594737,16.6572368 C18.2594737,15.4730263 17.4160526,14.4901316 16.0647368,14.4901316 L14.0634211,14.4901316 L13.1910526,15.6493421 L13.1910526,15.6453947 L13.1910526,14.4901316 L11.6660526,14.4901316 L11.6660526,21.4453947 L13.1910526,21.4453947 L13.1910526,15.7611842 Z" id="Fill-122" fill="#FFFFFE" mask="url(#mask-2)"></path>
                                <path d="M53.7346053,15.7621053 L56.1306579,15.7621053 C56.6925,15.7621053 57.0477632,16.3015789 57.0477632,16.7871053 C57.0477632,17.2713158 56.6925,17.795 56.1306579,17.795 L54.2556579,17.795 L57.2938158,21.4463158 L59.1030263,21.4463158 L56.9477632,18.8515789 L56.9503947,18.8515789 C57.8780263,18.5515789 58.4727632,17.7028947 58.4727632,16.7436842 C58.4727632,15.545 57.5477632,14.4897368 56.1964474,14.4897368 L52.2319737,14.4897368 L52.2319737,21.4463158 L53.7346053,21.4463158 L53.7346053,15.7621053 Z" id="Fill-123" fill="#FFFFFE" mask="url(#mask-2)"></path>
                                <polygon id="Fill-124" fill="#FFFFFE" mask="url(#mask-2)" points="65.7763158 21.4456579 65.7763158 20.1732895 61.7039474 20.1732895 61.7039474 18.3930263 65.2526316 18.3930263 65.2526316 17.1285526 61.7039474 17.1285526 61.7039474 15.7614474 65.7763158 15.7627632 65.7763158 14.4903947 60.1697368 14.4903947 60.1697368 21.4456579 61.7039474 21.4456579"></polygon>
                                <path d="M29.9127632,19.4272368 L33.1548684,19.4285526 L34.0548684,21.4456579 L35.7219737,21.4456579 L32.3167105,14.4903947 L30.7417105,14.4903947 L27.3377632,21.4456579 L29.0153947,21.4456579 L29.9127632,19.4272368 Z M31.5298684,15.6903947 L32.6338158,18.2035526 L30.4338158,18.2075 L31.5298684,15.6903947 Z" id="Fill-125" fill="#FFFFFE" mask="url(#mask-2)"></path>
                                <path d="M38.0330263,18.0696053 L38.0330263,18.0656579 L38.9040789,19.2235526 L40.4646053,19.2235526 C41.7751316,19.2235526 42.7001316,18.1301316 42.7001316,16.8709211 C42.7001316,15.6051316 41.7751316,14.4906579 40.4646053,14.4906579 L36.4988158,14.4906579 L36.4988158,21.4446053 L38.0330263,21.4446053 L38.0330263,18.0696053 Z M38.0330263,15.7617105 L40.3988158,15.7617105 C40.9593421,15.7617105 41.3159211,16.3459211 41.3159211,16.8709211 C41.3159211,17.3946053 40.9593421,17.9617105 40.3988158,17.9617105 L38.0330263,17.9617105 L38.0330263,15.7617105 Z" id="Fill-126" fill="#FFFFFE" mask="url(#mask-2)"></path>
                                <path d="M47.3106579,21.7360526 C49.3935526,21.7360526 51.0869737,20.0413158 51.0869737,17.9584211 C51.0869737,15.8676316 49.3935526,14.1742105 47.3106579,14.1742105 C45.2211842,14.1742105 43.5356579,15.8676316 43.5356579,17.9584211 C43.5356579,20.0413158 45.2211842,21.7360526 47.3106579,21.7360526 M47.3106579,15.5781579 C48.6172368,15.5781579 49.6830263,16.6439474 49.6830263,17.9584211 C49.6830263,19.265 48.6172368,20.3294737 47.3106579,20.3294737 C45.9961842,20.3294737 44.9303947,19.265 44.9303947,17.9584211 C44.9303947,16.6439474 45.9961842,15.5781579 47.3106579,15.5781579" id="Fill-127" fill="#FFFFFE" mask="url(#mask-2)"></path>
                            </g>
                        </g>
                    </g>
                </g>
            </g>
        </g>
    </g>
</svg>