<?xml version="1.0" encoding="UTF-8"?>
<svg width="39px" height="40px" viewBox="0 0 39 40" version="1.1" xmlns="http://www.w3.org/2000/svg" xmlns:xlink="http://www.w3.org/1999/xlink">
    <title>7873E75B-3E8A-4F63-97CD-C8D68794E7C6</title>
    <g id="Design" stroke="none" stroke-width="1" fill="none" fill-rule="evenodd">
        <g id="Components" transform="translate(-1839.000000, -254.000000)">
            <g id="HEADER/Connected" transform="translate(84.000000, 243.000000)">
                <g id="HEADER">
                    <g id="Group-5">
                        <g id="notifications" transform="translate(1756.000000, 13.000000)">
                            <g opacity="0.4">
                                <rect id="Rectangle-3" opacity="0" x="3" y="4" width="30" height="30"></rect>
                                <g id="icons-/-notification" transform="translate(18.500000, 18.000000) rotate(-21.000000) translate(-18.500000, -18.000000) translate(5.000000, 4.000000)" stroke="#FFFFFF" stroke-width="2">
                                    <path d="M12.489316,5.14420181 C12.6916145,4.25444547 13.524873,3.58774394 14.5220569,3.58774394 C15.6213932,3.58774394 16.5214985,4.39803692 16.5966025,5.42418948 C18.9310113,5.97622892 21.8757573,7.68329891 21.8262175,12.788323 C21.7926104,16.2515032 23.6556274,20.2357854 23.6004717,20.5515039 C23.4907599,23.184938 17.6430437,23.9297641 14.3197437,23.9297641 C10.9964437,23.9297641 3.7122642,23.1064469 3.60255237,20.4730127 C3.54739667,20.1572943 6.10412191,16.2938601 6.21617113,13.2148665 C6.42123465,7.57993825 10.0347807,5.74205337 12.489316,5.14420181 Z" id="Combined-Shape" transform="translate(13.601673, 13.758754) rotate(20.000000) translate(-13.601673, -13.758754) "></path>
                                    <path d="M12.6497123,23.1304158 C12.6508648,23.1760196 12.6514411,23.2102915 12.6514411,23.2332317 C12.6514411,24.890086 11.3082954,26.2332317 9.65144112,26.2332317 C7.99458687,26.2332317 6.65144112,24.890086 6.65144112,23.2332317 C6.65144112,23.1515583 6.65470486,23.0706472 6.66110904,22.9906217 C8.05189377,23.1609231 9.38463703,23.2332317 10.369512,23.2332317 C10.8217235,23.2332317 11.5817903,23.1989598 12.6497123,23.1304158 Z" id="Combined-Shape" transform="translate(9.651441, 24.611927) rotate(20.000000) translate(-9.651441, -24.611927) "></path>
                                </g>
                            </g>
                            <circle id="Oval" fill="#FF5454" cx="29" cy="6" r="3"></circle>
                        </g>
                    </g>
                </g>
            </g>
        </g>
    </g>
</svg>